# This file uses centimeters as units for non-parametric coordinates.

mtllib paper.mtl
g default
v -1.069850 0.770962 -0.188363
v 1.067627 0.807655 0.027683
v 1.077260 -0.839937 0.109832
v -1.067171 -0.881610 -0.032520
v 0.417823 0.823929 -0.018152
v 0.422267 -0.823657 0.118986
v -0.340840 0.817735 -0.068024
v -0.336391 -0.829858 0.069120
v -0.077222 0.791980 0.073404
v -0.043169 0.791980 0.076617
v -0.035033 0.791980 -0.191670
v -0.031646 0.802646 0.185378
v -0.046230 0.757565 0.184002
v -0.093422 0.757565 0.179549
v -0.108006 0.802646 0.178173
v -0.069826 0.830510 0.181776
v 0.037821 0.814714 0.021108
v 0.002806 0.706464 0.017804
v -0.110506 0.706464 0.007112
v -0.145521 0.814714 0.003808
v -0.053850 0.881610 0.012458
v 0.011285 0.809118 0.037305
v -0.014261 0.730153 0.034895
v -0.096931 0.730153 0.027094
v -0.122477 0.809118 0.024684
v -0.055599 0.857928 0.030994
vt 0.734708 0.190538
vt 0.734174 0.058066
vt 0.786427 0.189395
vt 0.786916 0.056929
vt 0.674995 0.189757
vt 0.671684 0.057267
vt 0.610943 0.058741
vt 0.616654 0.191246
vt 0.751715 0.017750
vt 0.753463 0.052657
vt 0.749010 0.052596
vt 0.625276 0.033750
vt 0.614151 0.033800
vt 0.627002 0.029885
vt 0.611753 0.029954
vt 0.660001 0.033019
vt 0.648953 0.033129
vt 0.662009 0.028991
vt 0.646866 0.029141
vt 0.631412 0.033502
vt 0.629719 0.029623
vt 0.642536 0.033646
vt 0.644966 0.029820
vt 0.683980 0.032622
vt 0.682126 0.029142
vt 0.694848 0.032525
vt 0.697023 0.029008
vt 0.677518 0.032841
vt 0.666484 0.032722
vt 0.679407 0.029310
vt 0.664281 0.029147
vt 0.724160 0.020053
vt 0.730521 0.039036
vt 0.704140 0.020236
vt 0.698128 0.039333
vt 0.730646 0.026383
vt 0.742039 0.026278
vt 0.736381 0.030469
vt 0.623350 0.054333
vt 0.617000 0.054362
vt 0.657834 0.053521
vt 0.651527 0.053583
vt 0.633164 0.054101
vt 0.639514 0.054183
vt 0.686269 0.052638
vt 0.692473 0.052582
vt 0.675158 0.053159
vt 0.668858 0.053091
vt 0.714432 0.050952
vt 0.739802 0.019601
vt 0.732760 0.019666
vn -0.066963 0.082585 0.994332
vn -0.037385 0.071013 0.996774
vn -0.048243 0.074834 0.996028
vn -0.048243 0.074834 0.996028
vn -0.037385 0.071013 0.996774
vn 0.015204 0.049880 0.998640
vn -0.115405 0.082087 0.989921
vn -0.108243 0.086241 0.990377
vn -0.066963 0.082585 0.994332
vn -0.066963 0.082585 0.994332
vn -0.108243 0.086241 0.990377
vn -0.037385 0.071013 0.996774
vn -0.143601 0.092682 0.985286
vn -0.108243 0.086241 0.990377
vn -0.161106 0.084347 0.983326
vn -0.161106 0.084347 0.983326
vn -0.108243 0.086241 0.990377
vn -0.115405 0.082087 0.989921
vn 0.000015 1.000000 0.000001
vn 0.000015 1.000000 0.000001
vn 0.000015 1.000000 0.000001
vn 0.871992 -0.294022 0.391383
vn 0.857829 -0.290435 0.424001
vn 0.540693 -0.199846 0.817137
vn 0.540693 -0.199846 0.817137
vn 0.857829 -0.290435 0.424001
vn 0.540705 -0.199848 0.817129
vn -0.031347 -0.942674 0.332240
vn -0.033600 -0.933837 0.356117
vn -0.073856 -0.617980 0.782717
vn -0.073856 -0.617980 0.782717
vn -0.033600 -0.933837 0.356117
vn -0.073854 -0.617985 0.782713
vn -0.929810 -0.294023 0.221367
vn -0.683979 -0.199841 0.701595
vn -0.921997 -0.290435 0.256063
vn -0.921997 -0.290435 0.256063
vn -0.683979 -0.199841 0.701595
vn -0.683984 -0.199842 0.701590
vn -0.588461 0.777814 0.220725
vn -0.475162 0.563757 0.675573
vn -0.586174 0.771058 0.248734
vn -0.586174 0.771058 0.248734
vn -0.475162 0.563757 0.675573
vn -0.475154 0.563750 0.675585
vn 0.536776 0.777821 0.326904
vn 0.529295 0.771067 0.353982
vn 0.340407 0.563763 0.752525
vn 0.340407 0.563763 0.752525
vn 0.529295 0.771067 0.353982
vn 0.340416 0.563763 0.752521
vn -0.093940 0.000002 0.995578
vn -0.093939 0.000001 0.995578
vn -0.093939 -0.000001 0.995578
vn -0.093939 -0.000001 0.995578
vn -0.093939 0.000001 0.995578
vn -0.093939 -0.000001 0.995578
vn 0.093939 0.000000 -0.995578
vn 0.093939 0.000000 -0.995578
vn 0.093939 0.000000 -0.995578
vn 0.918246 -0.304761 0.252873
vn 0.918246 -0.304759 0.252877
vn 0.871992 -0.294022 0.391383
vn 0.871992 -0.294022 0.391383
vn 0.918246 -0.304759 0.252877
vn 0.857829 -0.290435 0.424001
vn -0.016724 -0.984007 0.177342
vn -0.016727 -0.984008 0.177339
vn -0.031347 -0.942674 0.332240
vn -0.031347 -0.942674 0.332240
vn -0.016727 -0.984008 0.177339
vn -0.033600 -0.933837 0.356117
vn -0.949338 -0.304761 0.076663
vn -0.929810 -0.294023 0.221367
vn -0.949340 -0.304759 0.076658
vn -0.949340 -0.304759 0.076658
vn -0.929810 -0.294023 0.221367
vn -0.921997 -0.290435 0.256063
vn -0.592614 0.800484 0.089630
vn -0.588461 0.777814 0.220725
vn -0.592621 0.800480 0.089626
vn -0.592621 0.800480 0.089626
vn -0.588461 0.777814 0.220725
vn -0.586174 0.771058 0.248734
vn 0.565390 0.800485 0.198895
vn 0.565391 0.800484 0.198895
vn 0.536776 0.777821 0.326904
vn 0.536776 0.777821 0.326904
vn 0.565391 0.800484 0.198895
vn 0.529295 0.771067 0.353982
vn -0.093939 -0.000001 0.995578
vn -0.093939 0.000001 0.995578
vn -0.093939 0.000004 0.995578
vn 0.093939 0.000000 -0.995578
vn 0.093939 0.000000 -0.995578
vn 0.093939 0.000000 -0.995578
vn 0.093939 0.000000 -0.995578
vn 0.093939 0.000000 -0.995578
vn 0.093939 0.000000 -0.995578
s off
g paper:polySurface1
usemtl lambert20SG
f 5/1/1 6/2/2 2/3/3
f 2/3/4 6/2/5 3/4/6
f 7/5/7 8/6/8 5/1/9
f 5/1/10 8/6/11 6/2/12
f 4/7/13 8/6/14 1/8/15
f 1/8/16 8/6/17 7/5/18
f 11/9/19 9/10/20 10/11/21
f 22/12/22 23/13/23 17/14/24
f 17/14/25 23/13/26 18/15/27
f 23/16/28 24/17/29 18/18/30
f 18/18/31 24/17/32 19/19/33
f 25/20/34 20/21/35 24/22/36
f 24/22/37 20/21/38 19/23/39
f 26/24/40 21/25/41 25/26/42
f 25/26/43 21/25/44 20/27/45
f 26/28/46 22/29/47 21/30/48
f 21/30/49 22/29/50 17/31/51
f 13/32/52 12/33/53 14/34/54
f 14/34/55 12/33/56 15/35/57
f 17/36/58 20/37/59 21/38/60
f 12/39/61 13/40/62 22/12/63
f 22/12/64 13/40/65 23/13/66
f 13/41/67 14/42/68 23/16/69
f 23/16/70 14/42/71 24/17/72
f 15/43/73 25/20/74 14/44/75
f 14/44/76 25/20/77 24/22/78
f 16/45/79 26/24/80 15/46/81
f 15/46/82 26/24/83 25/26/84
f 16/47/85 12/48/86 26/28/87
f 26/28/88 12/48/89 22/29/90
f 15/35/91 12/33/92 16/49/93
f 19/50/94 20/37/95 18/51/96
f 18/51/97 20/37/98 17/36/99
