# This file uses centimeters as units for non-parametric coordinates.

mtllib redheart.mtl
g default
v -0.609107 -0.574885 0.002787
v -0.587672 0.560074 -0.080048
v 0.608446 0.560074 -0.089198
v 0.587019 -0.574885 -0.006362
v -0.587852 0.200913 -0.103588
v 0.608266 0.200913 -0.112738
v -0.587679 -0.217616 -0.080895
v 0.608439 -0.217616 -0.090045
v -0.058035 0.452844 0.109829
v -0.011465 0.452844 0.109473
v -0.037539 0.452844 -0.255063
v 0.019182 0.467375 0.255203
v -0.000762 0.405993 0.255355
v -0.065302 0.405993 0.255849
v -0.085247 0.467375 0.256002
v -0.033032 0.505307 0.255602
v 0.090566 0.483799 0.023083
v 0.042680 0.336415 0.023450
v -0.112287 0.336415 0.024635
v -0.160173 0.483799 0.025001
v -0.034804 0.574885 0.024042
v 0.056853 0.476188 0.048693
v 0.021917 0.368661 0.048960
v -0.091136 0.368661 0.049825
v -0.126072 0.476188 0.050092
v -0.034610 0.542639 0.049393
vt 0.619828 0.924776
vt 0.775779 0.924776
vt 0.619828 0.971561
vt 0.775779 0.971561
vt 0.619828 0.870193
vt 0.775779 0.870193
vt 0.619828 0.815610
vt 0.775779 0.815610
vt 0.787438 0.861954
vt 0.788754 0.881313
vt 0.786282 0.881323
vt 0.782007 0.932482
vt 0.789189 0.932617
vt 0.780835 0.934951
vt 0.790679 0.935135
vt 0.781924 0.950318
vt 0.789106 0.950187
vt 0.780641 0.952947
vt 0.790484 0.952768
vt 0.788395 0.969744
vt 0.789639 0.972462
vt 0.780539 0.969782
vt 0.778871 0.972514
vt 0.789883 0.915535
vt 0.791086 0.917847
vt 0.782701 0.915528
vt 0.781240 0.917838
vt 0.782737 0.897474
vt 0.789918 0.897622
vt 0.781485 0.899760
vt 0.791328 0.899963
vt 0.788483 0.851274
vt 0.790551 0.857449
vt 0.781971 0.851334
vt 0.780016 0.857545
vt 0.779746 0.846617
vt 0.790566 0.846518
vt 0.785192 0.850498
vt 0.783559 0.919225
vt 0.787659 0.919302
vt 0.783222 0.936978
vt 0.787322 0.936903
vt 0.786900 0.955221
vt 0.782415 0.955243
vt 0.788501 0.902293
vt 0.784401 0.902289
vt 0.784403 0.884265
vt 0.788503 0.884349
vt 0.785319 0.861324
vt 0.788442 0.840176
vt 0.781754 0.840238
vn 0.007649 -0.001088 0.999970
vn 0.007649 -0.001088 0.999970
vn 0.007633 -0.065392 0.997830
vn 0.007633 -0.065392 0.997830
vn 0.007649 -0.001088 0.999970
vn 0.007633 -0.065392 0.997830
vn 0.007577 0.137265 0.990505
vn 0.007580 0.133947 0.990960
vn 0.007649 -0.001088 0.999970
vn 0.007649 -0.001088 0.999970
vn 0.007580 0.133947 0.990960
vn 0.007649 -0.001088 0.999970
vn 0.007448 0.227627 0.973720
vn 0.007448 0.227628 0.973720
vn 0.007577 0.137265 0.990505
vn 0.007577 0.137265 0.990505
vn 0.007448 0.227628 0.973720
vn 0.007580 0.133947 0.990960
vn 0.000000 1.000000 0.000000
vn 0.000000 1.000000 0.000000
vn 0.000000 1.000000 0.000000
vn 0.907234 -0.294024 0.300794
vn 0.896451 -0.290437 0.334697
vn 0.620878 -0.199845 0.758006
vn 0.620878 -0.199845 0.758006
vn 0.896451 -0.290437 0.334697
vn 0.620867 -0.199842 0.758015
vn 0.002553 -0.942675 0.333703
vn 0.002736 -0.933837 0.357689
vn 0.006014 -0.617982 0.786169
vn 0.006014 -0.617982 0.786169
vn 0.002736 -0.933837 0.357689
vn 0.006014 -0.617979 0.786172
vn -0.902522 -0.294024 0.314650
vn -0.609205 -0.199844 0.767419
vn -0.891229 -0.290438 0.348362
vn -0.891229 -0.290438 0.348362
vn -0.609205 -0.199844 0.767419
vn -0.609228 -0.199852 0.767398
vn -0.562999 0.777815 0.279349
vn -0.404095 0.563758 0.720336
vn -0.557882 0.771064 0.306965
vn -0.557882 0.771064 0.306965
vn -0.404095 0.563758 0.720336
vn -0.404105 0.563772 0.720319
vn 0.567201 0.777820 0.270701
vn 0.562508 0.771066 0.298397
vn 0.415071 0.563768 0.714060
vn 0.415071 0.563768 0.714060
vn 0.562508 0.771066 0.298397
vn 0.415084 0.563773 0.714049
vn 0.007649 0.000000 0.999971
vn 0.007649 0.000000 0.999971
vn 0.007649 0.000000 0.999971
vn 0.007649 0.000000 0.999971
vn 0.007649 0.000000 0.999971
vn 0.007649 0.000000 0.999971
vn -0.007649 0.000000 -0.999971
vn -0.007649 0.000000 -0.999971
vn -0.007649 0.000000 -0.999971
vn 0.939179 -0.304758 0.158323
vn 0.939179 -0.304758 0.158321
vn 0.907234 -0.294024 0.300794
vn 0.907234 -0.294024 0.300794
vn 0.939179 -0.304758 0.158321
vn 0.896451 -0.290437 0.334697
vn 0.001363 -0.984008 0.178119
vn 0.001363 -0.984008 0.178118
vn 0.002553 -0.942675 0.333703
vn 0.002553 -0.942675 0.333703
vn 0.001363 -0.984008 0.178118
vn 0.002736 -0.933837 0.357689
vn -0.936643 -0.304763 0.172684
vn -0.902522 -0.294024 0.314650
vn -0.936645 -0.304761 0.172676
vn -0.936645 -0.304761 0.172676
vn -0.902522 -0.294024 0.314650
vn -0.891229 -0.290438 0.348362
vn -0.580454 0.800480 0.149347
vn -0.562999 0.777815 0.279349
vn -0.580456 0.800479 0.149345
vn -0.580456 0.800479 0.149345
vn -0.562999 0.777815 0.279349
vn -0.557882 0.771064 0.306965
vn 0.582670 0.800480 0.140454
vn 0.582670 0.800480 0.140453
vn 0.567201 0.777820 0.270701
vn 0.567201 0.777820 0.270701
vn 0.582670 0.800480 0.140453
vn 0.562508 0.771066 0.298397
vn 0.007649 0.000000 0.999971
vn 0.007649 0.000000 0.999971
vn 0.007649 0.000000 0.999971
vn -0.007649 0.000000 -0.999971
vn -0.007649 0.000000 -0.999971
vn -0.007649 0.000000 -0.999971
vn -0.007649 0.000000 -0.999971
vn -0.007649 0.000000 -0.999971
vn -0.007649 0.000000 -0.999971
s off
g polySurface12
usemtl lambert16SG
f 5/1/1 6/2/2 2/3/3
f 2/3/4 6/2/5 3/4/6
f 7/5/7 8/6/8 5/1/9
f 5/1/10 8/6/11 6/2/12
f 1/7/13 4/8/14 7/5/15
f 7/5/16 4/8/17 8/6/18
f 11/9/19 9/10/20 10/11/21
f 22/12/22 23/13/23 17/14/24
f 17/14/25 23/13/26 18/15/27
f 23/16/28 24/17/29 18/18/30
f 18/18/31 24/17/32 19/19/33
f 25/20/34 20/21/35 24/22/36
f 24/22/37 20/21/38 19/23/39
f 26/24/40 21/25/41 25/26/42
f 25/26/43 21/25/44 20/27/45
f 26/28/46 22/29/47 21/30/48
f 21/30/49 22/29/50 17/31/51
f 13/32/52 12/33/53 14/34/54
f 14/34/55 12/33/56 15/35/57
f 17/36/58 20/37/59 21/38/60
f 12/39/61 13/40/62 22/12/63
f 22/12/64 13/40/65 23/13/66
f 13/41/67 14/42/68 23/16/69
f 23/16/70 14/42/71 24/17/72
f 15/43/73 25/20/74 14/44/75
f 14/44/76 25/20/77 24/22/78
f 16/45/79 26/24/80 15/46/81
f 15/46/82 26/24/83 25/26/84
f 16/47/85 12/48/86 26/28/87
f 26/28/88 12/48/89 22/29/90
f 15/35/91 12/33/92 16/49/93
f 19/50/94 20/37/95 18/51/96
f 18/51/97 20/37/98 17/36/99
