# This file uses centimeters as units for non-parametric coordinates.

mtllib redxnote.mtl
g default
v -0.609107 -0.574885 0.002787
v -0.587672 0.560074 -0.080048
v 0.608446 0.560074 -0.089198
v 0.587019 -0.574885 -0.006362
v -0.587852 0.200913 -0.103588
v 0.608266 0.200913 -0.112738
v -0.587679 -0.217616 -0.080895
v 0.608439 -0.217616 -0.090045
v -0.058035 0.452844 0.109829
v -0.011465 0.452844 0.109473
v -0.037539 0.452844 -0.255063
v 0.019182 0.467375 0.255203
v -0.000762 0.405993 0.255355
v -0.065302 0.405993 0.255849
v -0.085247 0.467375 0.256002
v -0.033032 0.505307 0.255602
v 0.090566 0.483799 0.023083
v 0.042680 0.336415 0.023450
v -0.112287 0.336415 0.024635
v -0.160173 0.483799 0.025001
v -0.034804 0.574885 0.024042
v 0.056853 0.476188 0.048693
v 0.021917 0.368661 0.048960
v -0.091136 0.368661 0.049825
v -0.126072 0.476188 0.050092
v -0.034610 0.542639 0.049393
vt 0.819381 0.532249
vt 0.975332 0.532249
vt 0.819381 0.579034
vt 0.975332 0.579034
vt 0.819381 0.477666
vt 0.975332 0.477666
vt 0.819381 0.423083
vt 0.975332 0.423083
vt 0.986991 0.469427
vt 0.988307 0.488786
vt 0.985835 0.488796
vt 0.981560 0.539955
vt 0.988742 0.540090
vt 0.980388 0.542424
vt 0.990232 0.542608
vt 0.981477 0.557791
vt 0.988658 0.557660
vt 0.980193 0.560421
vt 0.990037 0.560241
vt 0.987948 0.577217
vt 0.989192 0.579935
vt 0.980092 0.577255
vt 0.978424 0.579987
vt 0.989436 0.523008
vt 0.990639 0.525320
vt 0.982254 0.523001
vt 0.980793 0.525311
vt 0.982289 0.504947
vt 0.989471 0.505095
vt 0.981038 0.507233
vt 0.990881 0.507436
vt 0.988036 0.458748
vt 0.990104 0.464922
vt 0.981524 0.458807
vt 0.979569 0.465018
vt 0.979298 0.454090
vt 0.990119 0.453991
vt 0.984745 0.457971
vt 0.983112 0.526698
vt 0.987212 0.526775
vt 0.982775 0.544451
vt 0.986875 0.544376
vt 0.986453 0.562694
vt 0.981968 0.562716
vt 0.988054 0.509766
vt 0.983953 0.509762
vt 0.983956 0.491738
vt 0.988055 0.491822
vt 0.984872 0.468797
vt 0.987994 0.447649
vt 0.981307 0.447711
vn 0.007649 -0.001088 0.999970
vn 0.007649 -0.001088 0.999970
vn 0.007633 -0.065392 0.997830
vn 0.007633 -0.065392 0.997830
vn 0.007649 -0.001088 0.999970
vn 0.007633 -0.065392 0.997830
vn 0.007577 0.137265 0.990505
vn 0.007580 0.133947 0.990960
vn 0.007649 -0.001088 0.999970
vn 0.007649 -0.001088 0.999970
vn 0.007580 0.133947 0.990960
vn 0.007649 -0.001088 0.999970
vn 0.007448 0.227627 0.973720
vn 0.007448 0.227628 0.973720
vn 0.007577 0.137265 0.990505
vn 0.007577 0.137265 0.990505
vn 0.007448 0.227628 0.973720
vn 0.007580 0.133947 0.990960
vn 0.000000 1.000000 0.000000
vn 0.000000 1.000000 0.000000
vn 0.000000 1.000000 0.000000
vn 0.907234 -0.294024 0.300794
vn 0.896451 -0.290437 0.334697
vn 0.620878 -0.199845 0.758006
vn 0.620878 -0.199845 0.758006
vn 0.896451 -0.290437 0.334697
vn 0.620867 -0.199842 0.758015
vn 0.002553 -0.942675 0.333703
vn 0.002736 -0.933837 0.357689
vn 0.006014 -0.617982 0.786169
vn 0.006014 -0.617982 0.786169
vn 0.002736 -0.933837 0.357689
vn 0.006014 -0.617979 0.786172
vn -0.902522 -0.294024 0.314650
vn -0.609205 -0.199844 0.767419
vn -0.891229 -0.290438 0.348362
vn -0.891229 -0.290438 0.348362
vn -0.609205 -0.199844 0.767419
vn -0.609228 -0.199852 0.767398
vn -0.562999 0.777815 0.279349
vn -0.404095 0.563758 0.720336
vn -0.557882 0.771064 0.306965
vn -0.557882 0.771064 0.306965
vn -0.404095 0.563758 0.720336
vn -0.404105 0.563772 0.720319
vn 0.567201 0.777820 0.270701
vn 0.562508 0.771066 0.298397
vn 0.415071 0.563768 0.714060
vn 0.415071 0.563768 0.714060
vn 0.562508 0.771066 0.298397
vn 0.415084 0.563773 0.714049
vn 0.007649 0.000000 0.999971
vn 0.007649 0.000000 0.999971
vn 0.007649 0.000000 0.999971
vn 0.007649 0.000000 0.999971
vn 0.007649 0.000000 0.999971
vn 0.007649 0.000000 0.999971
vn -0.007649 0.000000 -0.999971
vn -0.007649 0.000000 -0.999971
vn -0.007649 0.000000 -0.999971
vn 0.939179 -0.304758 0.158323
vn 0.939179 -0.304758 0.158321
vn 0.907234 -0.294024 0.300794
vn 0.907234 -0.294024 0.300794
vn 0.939179 -0.304758 0.158321
vn 0.896451 -0.290437 0.334697
vn 0.001363 -0.984008 0.178119
vn 0.001363 -0.984008 0.178118
vn 0.002553 -0.942675 0.333703
vn 0.002553 -0.942675 0.333703
vn 0.001363 -0.984008 0.178118
vn 0.002736 -0.933837 0.357689
vn -0.936643 -0.304763 0.172684
vn -0.902522 -0.294024 0.314650
vn -0.936645 -0.304761 0.172676
vn -0.936645 -0.304761 0.172676
vn -0.902522 -0.294024 0.314650
vn -0.891229 -0.290438 0.348362
vn -0.580454 0.800480 0.149347
vn -0.562999 0.777815 0.279349
vn -0.580456 0.800479 0.149345
vn -0.580456 0.800479 0.149345
vn -0.562999 0.777815 0.279349
vn -0.557882 0.771064 0.306965
vn 0.582670 0.800480 0.140454
vn 0.582670 0.800480 0.140453
vn 0.567201 0.777820 0.270701
vn 0.567201 0.777820 0.270701
vn 0.582670 0.800480 0.140453
vn 0.562508 0.771066 0.298397
vn 0.007649 0.000000 0.999971
vn 0.007649 0.000000 0.999971
vn 0.007649 0.000000 0.999971
vn -0.007649 0.000000 -0.999971
vn -0.007649 0.000000 -0.999971
vn -0.007649 0.000000 -0.999971
vn -0.007649 0.000000 -0.999971
vn -0.007649 0.000000 -0.999971
vn -0.007649 0.000000 -0.999971
s off
g polySurface16
usemtl lambert16SG
f 5/1/1 6/2/2 2/3/3
f 2/3/4 6/2/5 3/4/6
f 7/5/7 8/6/8 5/1/9
f 5/1/10 8/6/11 6/2/12
f 1/7/13 4/8/14 7/5/15
f 7/5/16 4/8/17 8/6/18
f 11/9/19 9/10/20 10/11/21
f 22/12/22 23/13/23 17/14/24
f 17/14/25 23/13/26 18/15/27
f 23/16/28 24/17/29 18/18/30
f 18/18/31 24/17/32 19/19/33
f 25/20/34 20/21/35 24/22/36
f 24/22/37 20/21/38 19/23/39
f 26/24/40 21/25/41 25/26/42
f 25/26/43 21/25/44 20/27/45
f 26/28/46 22/29/47 21/30/48
f 21/30/49 22/29/50 17/31/51
f 13/32/52 12/33/53 14/34/54
f 14/34/55 12/33/56 15/35/57
f 17/36/58 20/37/59 21/38/60
f 12/39/61 13/40/62 22/12/63
f 22/12/64 13/40/65 23/13/66
f 13/41/67 14/42/68 23/16/69
f 23/16/70 14/42/71 24/17/72
f 15/43/73 25/20/74 14/44/75
f 14/44/76 25/20/77 24/22/78
f 16/45/79 26/24/80 15/46/81
f 15/46/82 26/24/83 25/26/84
f 16/47/85 12/48/86 26/28/87
f 26/28/88 12/48/89 22/29/90
f 15/35/91 12/33/92 16/49/93
f 19/50/94 20/37/95 18/51/96
f 18/51/97 20/37/98 17/36/99
