# This file uses centimeters as units for non-parametric coordinates.

mtllib board.mtl
g default
v 0.004036 0.030249 0.999606
v 0.052041 0.030249 0.999606
v 0.004036 1.601635 0.999606
v 0.052041 1.601635 0.999606
v 0.004036 1.601635 -0.999606
v 0.052041 1.601635 -0.999606
v 0.004036 0.030249 -0.999606
v 0.052041 0.030249 -0.999606
v 0.052041 1.546084 -0.949626
v 0.052041 1.546084 0.949626
v 0.052041 0.074690 0.949626
v 0.052041 0.074690 -0.949626
v 0.052041 0.577982 -0.949626
v 0.052041 0.577982 0.949626
v 0.052041 0.623448 -0.949626
v 0.052041 0.623448 0.949626
v 0.041024 0.577982 -0.949626
v 0.041024 0.577982 0.949626
v 0.041024 0.074690 0.949626
v 0.041024 0.074690 -0.949626
v 0.041024 1.546084 -0.949626
v 0.041024 1.546084 0.949626
v 0.041024 0.623448 0.949626
v 0.041024 0.623448 -0.949626
vt 0.322633 0.021278
vt 0.322316 0.325580
vt 0.310806 0.325581
vt 0.310415 0.021280
vt 0.297810 0.723285
vt 0.291991 0.325664
vt 0.303501 0.325577
vt 0.308611 0.723206
vt 0.289961 0.021373
vt 0.302179 0.021278
vt 0.327848 0.723263
vt 0.317046 0.723262
vt 0.985746 0.024131
vt 0.988770 0.984738
vt 0.745240 0.985505
vt 0.742216 0.024898
vt 0.109423 0.021994
vt 0.115920 0.947094
vt 0.094733 0.947243
vt 0.088237 0.022143
vt 0.720865 0.031299
vt 0.720561 0.696872
vt 0.344468 0.696852
vt 0.344772 0.031280
vt 0.260901 0.022442
vt 0.260901 0.725600
vt 0.245257 0.725600
vt 0.245257 0.022442
vt 0.355528 0.873050
vt 0.132321 0.871796
vt 0.132395 0.858737
vt 0.355602 0.859991
vt 0.229120 0.022442
vt 0.229120 0.725597
vt 0.213475 0.725597
vt 0.213475 0.022442
vt 0.132126 0.880168
vt 0.355333 0.881422
vt 0.355260 0.894480
vt 0.132053 0.893226
vt 0.276792 0.022442
vt 0.276792 0.725597
vt 0.261148 0.725597
vt 0.261148 0.022442
vt 0.541124 0.922974
vt 0.131934 0.922089
vt 0.131962 0.909030
vt 0.541152 0.909915
vt 0.245011 0.022442
vt 0.245011 0.725594
vt 0.229367 0.725594
vt 0.229367 0.022442
vt 0.131966 0.927436
vt 0.541157 0.928320
vt 0.541128 0.941379
vt 0.131938 0.940495
vt 0.008787 0.987221
vt 0.011212 0.013411
vt 0.037038 0.037820
vt 0.034734 0.962941
vt 0.150733 0.751500
vt 0.126407 0.730770
vt 0.126621 0.496235
vt 0.126640 0.475048
vt 0.127032 0.045099
vt 0.151401 0.019233
vt 0.048267 0.963168
vt 0.050571 0.038047
vt 0.071340 0.013754
vt 0.068915 0.987564
vt 0.167067 0.022422
vt 0.191389 0.048331
vt 0.190997 0.478280
vt 0.190978 0.499467
vt 0.190764 0.734002
vt 0.166400 0.754688
vn 0.000000 0.000000 1.000000
vn 0.000000 0.000000 1.000000
vn 0.000000 0.000000 1.000000
vn 0.000000 0.000000 1.000000
vn 0.000000 1.000000 0.000000
vn 0.000000 1.000000 0.000000
vn 0.000000 1.000000 0.000000
vn 0.000000 1.000000 0.000000
vn 0.000000 0.000000 -1.000000
vn 0.000000 0.000000 -1.000000
vn 0.000000 0.000000 -1.000000
vn 0.000000 0.000000 -1.000000
vn 0.000000 -1.000000 0.000000
vn 0.000000 -1.000000 0.000000
vn 0.000000 -1.000000 0.000000
vn 0.000000 -1.000000 0.000000
vn 1.000000 0.000000 0.000000
vn 1.000000 0.000000 0.000000
vn 1.000000 0.000000 0.000000
vn 1.000000 0.000000 0.000000
vn 1.000000 0.000000 0.000000
vn 1.000000 -0.000000 0.000000
vn 1.000000 0.000000 0.000000
vn 1.000000 0.000000 0.000000
vn 1.000000 0.000000 0.000000
vn 1.000000 -0.000000 0.000000
vn 1.000000 -0.000000 0.000000
vn 1.000000 -0.000000 0.000000
vn 0.000000 -1.000000 0.000000
vn 0.000000 -1.000000 0.000000
vn 0.000000 -1.000000 0.000000
vn 0.000000 -1.000000 0.000000
vn 0.000000 0.000000 -1.000000
vn 0.000000 0.000000 -1.000000
vn 0.000000 0.000000 -1.000000
vn 0.000000 0.000000 -1.000000
vn 0.000000 1.000000 -0.000000
vn 0.000000 1.000000 -0.000000
vn 0.000000 1.000000 -0.000000
vn 0.000000 1.000000 -0.000000
vn 0.000000 0.000000 1.000000
vn 0.000000 0.000000 1.000000
vn 0.000000 0.000000 1.000000
vn 0.000000 0.000000 1.000000
vn 0.000000 -1.000000 0.000000
vn 0.000000 -1.000000 0.000000
vn 0.000000 -1.000000 0.000000
vn 0.000000 -1.000000 0.000000
vn 0.000000 0.000000 -1.000000
vn 0.000000 0.000000 -1.000000
vn 0.000000 0.000000 -1.000000
vn 0.000000 0.000000 -1.000000
vn 0.000000 1.000000 0.000000
vn 0.000000 1.000000 0.000000
vn 0.000000 1.000000 0.000000
vn 0.000000 1.000000 0.000000
vn 0.000000 0.000000 1.000000
vn 0.000000 0.000000 1.000000
vn 0.000000 0.000000 1.000000
vn 0.000000 0.000000 1.000000
vn 1.000000 -0.000000 0.000000
vn 1.000000 0.000000 0.000000
vn 1.000000 -0.000000 0.000000
vn 1.000000 0.000000 0.000000
vn 1.000000 -0.000000 0.000000
vn 1.000000 0.000000 0.000000
vn 1.000000 0.000000 0.000000
vn 1.000000 0.000000 0.000000
s 1
g polySurface7 polySurface5 polySurface2 pCylinder2
usemtl phong1SG
f 3/1/1 1/2/2 4/4/3
f 4/4/3 1/2/2 2/3/4
s 2
f 4/5/5 6/6/6 3/8/7
f 3/8/7 6/6/6 5/7/8
s 3
f 6/6/9 8/9/10 5/7/11
f 5/7/11 8/9/10 7/10/12
s 4
f 1/2/13 7/11/14 2/3/15
f 2/3/15 7/11/14 8/12/16
s 5
f 17/13/17 18/14/18 20/16/19
f 20/16/19 18/14/18 19/15/20
s 6
f 15/17/21 16/18/22 13/20/23
f 13/20/23 16/18/22 14/19/24
s 7
f 21/21/25 22/22/26 24/24/27
f 24/24/27 22/22/26 23/23/28
s 8
f 13/25/29 14/26/30 17/28/31
f 17/28/31 14/26/30 18/27/32
s 9
f 14/29/33 11/30/34 18/32/35
f 18/32/35 11/30/34 19/31/36
s 10
f 11/33/37 12/34/38 19/36/39
f 19/36/39 12/34/38 20/35/40
s 11
f 12/37/41 13/38/42 20/40/43
f 20/40/43 13/38/42 17/39/44
s 12
f 9/41/45 10/42/46 21/44/47
f 21/44/47 10/42/46 22/43/48
s 13
f 10/45/49 16/46/50 22/48/51
f 22/48/51 16/46/50 23/47/52
s 14
f 16/49/53 15/50/54 23/52/55
f 23/52/55 15/50/54 24/51/56
s 15
f 15/53/57 9/54/58 24/56/59
f 24/56/59 9/54/58 21/55/60
s 6
f 6/57/61 4/58/62 9/60/63
f 9/60/63 4/58/62 10/59/64
f 4/66/62 2/61/65 10/65/64
f 10/65/64 2/61/65 16/64/22
f 16/64/22 2/61/65 14/63/24
f 2/61/65 11/62/66 14/63/24
f 12/67/67 11/68/66 8/70/68
f 8/70/68 11/68/66 2/69/65
f 6/71/61 9/72/63 8/76/68
f 9/72/63 15/73/21 8/76/68
f 15/73/21 13/74/23 8/76/68
f 13/74/23 12/75/67 8/76/68
g default
v 0.004036 0.030249 0.999606
v 0.052041 0.030249 0.999606
v 0.004036 1.601635 0.999606
v 0.052041 1.601635 0.999606
v 0.004036 1.601635 -0.999606
v 0.052041 1.601635 -0.999606
v 0.004036 0.030249 -0.999606
v 0.052041 0.030249 -0.999606
v 0.052041 1.546084 -0.949626
v 0.052041 1.546084 0.949626
v 0.052041 0.074690 0.949626
v 0.052041 0.074690 -0.949626
v 0.052041 0.577982 -0.949626
v 0.052041 0.577982 0.949626
v 0.052041 0.623448 -0.949626
v 0.052041 0.623448 0.949626
v 0.041024 0.577982 -0.949626
v 0.041024 0.577982 0.949626
v 0.041024 0.074690 0.949626
v 0.041024 0.074690 -0.949626
v 0.041024 1.546084 -0.949626
v 0.041024 1.546084 0.949626
v 0.041024 0.623448 0.949626
v 0.041024 0.623448 -0.949626
vt 0.322633 0.021278
vt 0.322316 0.325580
vt 0.310806 0.325581
vt 0.310415 0.021280
vt 0.297810 0.723285
vt 0.291991 0.325664
vt 0.303501 0.325577
vt 0.308611 0.723206
vt 0.289961 0.021373
vt 0.302179 0.021278
vt 0.327848 0.723263
vt 0.317046 0.723262
vt 0.985746 0.024131
vt 0.988770 0.984738
vt 0.745240 0.985505
vt 0.742216 0.024898
vt 0.109423 0.021994
vt 0.115920 0.947094
vt 0.094733 0.947243
vt 0.088237 0.022143
vt 0.720865 0.031299
vt 0.720561 0.696872
vt 0.344468 0.696852
vt 0.344772 0.031280
vt 0.260901 0.022442
vt 0.260901 0.725600
vt 0.245257 0.725600
vt 0.245257 0.022442
vt 0.355528 0.873050
vt 0.132321 0.871796
vt 0.132395 0.858737
vt 0.355602 0.859991
vt 0.229120 0.022442
vt 0.229120 0.725597
vt 0.213475 0.725597
vt 0.213475 0.022442
vt 0.132126 0.880168
vt 0.355333 0.881422
vt 0.355260 0.894480
vt 0.132053 0.893226
vt 0.276792 0.022442
vt 0.276792 0.725597
vt 0.261148 0.725597
vt 0.261148 0.022442
vt 0.541124 0.922974
vt 0.131934 0.922089
vt 0.131962 0.909030
vt 0.541152 0.909915
vt 0.245011 0.022442
vt 0.245011 0.725594
vt 0.229367 0.725594
vt 0.229367 0.022442
vt 0.131966 0.927436
vt 0.541157 0.928320
vt 0.541128 0.941379
vt 0.131938 0.940495
vt 0.008787 0.987221
vt 0.011212 0.013411
vt 0.037038 0.037820
vt 0.034734 0.962941
vt 0.150733 0.751500
vt 0.126407 0.730770
vt 0.126621 0.496235
vt 0.126640 0.475048
vt 0.127032 0.045099
vt 0.151401 0.019233
vt 0.048267 0.963168
vt 0.050571 0.038047
vt 0.071340 0.013754
vt 0.068915 0.987564
vt 0.167067 0.022422
vt 0.191389 0.048331
vt 0.190997 0.478280
vt 0.190978 0.499467
vt 0.190764 0.734002
vt 0.166400 0.754688
vn 0.000000 0.000000 1.000000
vn 0.000000 0.000000 1.000000
vn 0.000000 0.000000 1.000000
vn 0.000000 0.000000 1.000000
vn 0.000000 1.000000 0.000000
vn 0.000000 1.000000 0.000000
vn 0.000000 1.000000 0.000000
vn 0.000000 1.000000 0.000000
vn 0.000000 0.000000 -1.000000
vn 0.000000 0.000000 -1.000000
vn 0.000000 0.000000 -1.000000
vn 0.000000 0.000000 -1.000000
vn 0.000000 -1.000000 0.000000
vn 0.000000 -1.000000 0.000000
vn 0.000000 -1.000000 0.000000
vn 0.000000 -1.000000 0.000000
vn 1.000000 0.000000 0.000000
vn 1.000000 0.000000 0.000000
vn 1.000000 0.000000 0.000000
vn 1.000000 0.000000 0.000000
vn 1.000000 0.000000 0.000000
vn 1.000000 -0.000000 0.000000
vn 1.000000 0.000000 0.000000
vn 1.000000 0.000000 0.000000
vn 1.000000 0.000000 0.000000
vn 1.000000 -0.000000 0.000000
vn 1.000000 -0.000000 0.000000
vn 1.000000 -0.000000 0.000000
vn 0.000000 -1.000000 0.000000
vn 0.000000 -1.000000 0.000000
vn 0.000000 -1.000000 0.000000
vn 0.000000 -1.000000 0.000000
vn 0.000000 0.000000 -1.000000
vn 0.000000 0.000000 -1.000000
vn 0.000000 0.000000 -1.000000
vn 0.000000 0.000000 -1.000000
vn 0.000000 1.000000 -0.000000
vn 0.000000 1.000000 -0.000000
vn 0.000000 1.000000 -0.000000
vn 0.000000 1.000000 -0.000000
vn 0.000000 0.000000 1.000000
vn 0.000000 0.000000 1.000000
vn 0.000000 0.000000 1.000000
vn 0.000000 0.000000 1.000000
vn 0.000000 -1.000000 0.000000
vn 0.000000 -1.000000 0.000000
vn 0.000000 -1.000000 0.000000
vn 0.000000 -1.000000 0.000000
vn 0.000000 0.000000 -1.000000
vn 0.000000 0.000000 -1.000000
vn 0.000000 0.000000 -1.000000
vn 0.000000 0.000000 -1.000000
vn 0.000000 1.000000 0.000000
vn 0.000000 1.000000 0.000000
vn 0.000000 1.000000 0.000000
vn 0.000000 1.000000 0.000000
vn 0.000000 0.000000 1.000000
vn 0.000000 0.000000 1.000000
vn 0.000000 0.000000 1.000000
vn 0.000000 0.000000 1.000000
vn 1.000000 -0.000000 0.000000
vn 1.000000 0.000000 0.000000
vn 1.000000 -0.000000 0.000000
vn 1.000000 0.000000 0.000000
vn 1.000000 -0.000000 0.000000
vn 1.000000 0.000000 0.000000
vn 1.000000 0.000000 0.000000
vn 1.000000 0.000000 0.000000
s 1
g polySurface7 polySurface5 polySurface2 pCylinder2
f 27/77/69 25/78/70 28/80/71
f 28/80/71 25/78/70 26/79/72
s 2
f 28/81/73 30/82/74 27/84/75
f 27/84/75 30/82/74 29/83/76
s 3
f 30/82/77 32/85/78 29/83/79
f 29/83/79 32/85/78 31/86/80
s 4
f 25/78/81 31/87/82 26/79/83
f 26/79/83 31/87/82 32/88/84
s 5
f 41/89/85 42/90/86 44/92/87
f 44/92/87 42/90/86 43/91/88
s 6
f 39/93/89 40/94/90 37/96/91
f 37/96/91 40/94/90 38/95/92
s 7
f 45/97/93 46/98/94 48/100/95
f 48/100/95 46/98/94 47/99/96
s 8
f 37/101/97 38/102/98 41/104/99
f 41/104/99 38/102/98 42/103/100
s 9
f 38/105/101 35/106/102 42/108/103
f 42/108/103 35/106/102 43/107/104
s 10
f 35/109/105 36/110/106 43/112/107
f 43/112/107 36/110/106 44/111/108
s 11
f 36/113/109 37/114/110 44/116/111
f 44/116/111 37/114/110 41/115/112
s 12
f 33/117/113 34/118/114 45/120/115
f 45/120/115 34/118/114 46/119/116
s 13
f 34/121/117 40/122/118 46/124/119
f 46/124/119 40/122/118 47/123/120
s 14
f 40/125/121 39/126/122 47/128/123
f 47/128/123 39/126/122 48/127/124
s 15
f 39/129/125 33/130/126 48/132/127
f 48/132/127 33/130/126 45/131/128
s 6
f 30/133/129 28/134/130 33/136/131
f 33/136/131 28/134/130 34/135/132
f 28/142/130 26/137/133 34/141/132
f 34/141/132 26/137/133 40/140/90
f 40/140/90 26/137/133 38/139/92
f 26/137/133 35/138/134 38/139/92
f 36/143/135 35/144/134 32/146/136
f 32/146/136 35/144/134 26/145/133
f 30/147/129 33/148/131 32/152/136
f 33/148/131 39/149/89 32/152/136
f 39/149/89 37/150/91 32/152/136
f 37/150/91 36/151/135 32/152/136
