# This file uses centimeters as units for non-parametric coordinates.

mtllib floor.mtl
g default
v -75.751945 -37.205078 -0.000002
v 76.811584 -37.205078 -0.000002
v -75.751945 -37.205078 46.713936
v 76.811584 -37.205078 46.713936
vt 0.022026 0.085139
vt 0.970440 0.084867
vt 0.970523 0.375265
vt 0.022109 0.375537
vn 0.000000 1.000000 0.000000
vn 0.000000 1.000000 0.000000
vn 0.000000 1.000000 0.000000
vn 0.000000 1.000000 0.000000
s 1
g floor:pPlane3
usemtl floor:lambert2SG
f 2/1/1 1/2/2 4/4/3
f 4/4/3 1/2/2 3/3/4
