# This file uses centimeters as units for non-parametric coordinates.

mtllib plane.mtl
g default
v -41.524027 -0.000000 41.523377
v 41.475973 -0.000000 41.523377
v -41.524027 0.000000 -41.478582
v 41.475973 0.000000 -41.478582
vt 0.000000 0.000000
vt 1.000000 0.000000
vt 0.000000 0.589578
vt 1.000000 0.589578
vn 0.000000 1.000000 0.000000
vn 0.000000 1.000000 0.000000
vn 0.000000 1.000000 0.000000
vn 0.000000 1.000000 0.000000
s 1
g initialShadingGroup pPlane1
f 1/1/1 2/2/2 3/3/3
f 3/3/3 2/2/2 4/4/4
